<svg xmlns="http://www.w3.org/2000/svg">
    <symbol id="arrow-rotate" viewBox="0 0 44 44" fill="none">
        <rect width="44" height="44" rx="22" fill="#F9F9F6"></rect>
        <path fill-rule="evenodd" clip-rule="evenodd" d="M19.25 18C19.25 17.5858 19.5858 17.25 20 17.25H26C26.4142 17.25 26.75 17.5858 26.75 18V24C26.75 24.4142 26.4142 24.75 26 24.75C25.5858 24.75 25.25 24.4142 25.25 24V19.8107L18.5303 26.5303C18.2374 26.8232 17.7626 26.8232 17.4697 26.5303C17.1768 26.2374 17.1768 25.7626 17.4697 25.4697L24.1893 18.75H20C19.5858 18.75 19.25 18.4142 19.25 18Z" fill="#5F6F52"></path>
    </symbol>
    <symbol id="icon-date" viewBox="0 0 14 14" fill="none">
        <path fill-rule="evenodd" clip-rule="evenodd" d="M1.98828 5.63672C1.98828 5.3951 2.18415 5.19922 2.42578 5.19922H11.7833C12.0249 5.19922 12.2208 5.3951 12.2208 5.63672C12.2208 5.87836 12.0249 6.07424 11.7833 6.07424H2.42578C2.18415 6.07424 1.98828 5.87836 1.98828 5.63672Z" fill="#71717A"></path>
        <path fill-rule="evenodd" clip-rule="evenodd" d="M9.22461 1.3125C9.46623 1.3125 9.66211 1.50838 9.66211 1.75V3.47768C9.66211 3.7193 9.46623 3.91518 9.22461 3.91518C8.98293 3.91518 8.78711 3.7193 8.78711 3.47768V1.75C8.78711 1.50838 8.98293 1.3125 9.22461 1.3125Z" fill="#71717A"></path>
        <path fill-rule="evenodd" clip-rule="evenodd" d="M4.98438 1.3125C5.226 1.3125 5.42188 1.50838 5.42188 1.75V3.47768C5.42188 3.7193 5.226 3.91518 4.98438 3.91518C4.74275 3.91518 4.54688 3.7193 4.54688 3.47768V1.75C4.54688 1.50838 4.74275 1.3125 4.98438 1.3125Z" fill="#71717A"></path>
        <path fill-rule="evenodd" clip-rule="evenodd" d="M2.74959 2.88769C3.28569 2.3781 4.03182 2.14062 4.88164 2.14062H9.32686C10.1786 2.14062 10.9251 2.37791 11.4605 2.88808C11.9991 3.40144 12.2669 4.13686 12.2645 5.01613C12.2645 5.016 12.2645 5.01626 12.2645 5.01613V9.80669C12.2645 10.6861 11.9954 11.4222 11.4567 11.9364C10.9212 12.4476 10.1747 12.6864 9.32231 12.6864H4.88164C4.0292 12.6864 3.28211 12.4425 2.74652 11.9234C2.20877 11.4022 1.93945 10.6571 1.93945 9.76696V5.01527C1.93945 4.1355 2.21011 3.4005 2.74959 2.88769ZM3.35244 3.52189C3.02509 3.83304 2.81445 4.31662 2.81445 5.01527V9.76696C2.81445 10.4802 3.02644 10.9762 3.3555 11.2951C3.68674 11.6161 4.19199 11.8114 4.88164 11.8114H9.32231C10.0165 11.8114 10.5224 11.6186 10.8525 11.3035C11.1795 10.9913 11.3895 10.5063 11.3895 9.80669V5.01527V5.01401C11.3915 4.31504 11.1826 3.83204 10.8568 3.52149C10.5275 3.2077 10.0217 3.01562 9.32686 3.01562H4.88164C4.18937 3.01562 3.68316 3.20751 3.35244 3.52189Z" fill="#71717A"></path>
        <path fill-rule="evenodd" clip-rule="evenodd" d="M6.66797 7.80078C6.66797 7.55916 6.86385 7.36328 7.10547 7.36328C7.34714 7.36328 7.54332 7.55916 7.54332 7.80078C7.54332 8.0424 7.34749 8.23828 7.10582 8.23828C6.8642 8.23828 6.66797 8.0424 6.66797 7.80078Z" fill="#71717A"></path>
        <path fill-rule="evenodd" clip-rule="evenodd" d="M6.66797 9.83203C6.66797 9.59041 6.86385 9.39453 7.10547 9.39453C7.34714 9.39453 7.54332 9.59041 7.54332 9.83203C7.54332 10.0737 7.34749 10.2695 7.10582 10.2695C6.8642 10.2695 6.66797 10.0737 6.66797 9.83203Z" fill="#71717A"></path>
        <path fill-rule="evenodd" clip-rule="evenodd" d="M4.32227 7.80078C4.32227 7.55916 4.51814 7.36328 4.75977 7.36328C5.00139 7.36328 5.19766 7.55916 5.19766 7.80078C5.19766 8.0424 5.00179 8.23828 4.76016 8.23828C4.51854 8.23828 4.32227 8.0424 4.32227 7.80078Z" fill="#71717A"></path>
        <path fill-rule="evenodd" clip-rule="evenodd" d="M4.32227 9.83203C4.32227 9.59041 4.51814 9.39453 4.75977 9.39453C5.00139 9.39453 5.19766 9.59041 5.19766 9.83203C5.19766 10.0737 5.00179 10.2695 4.76016 10.2695C4.51854 10.2695 4.32227 10.0737 4.32227 9.83203Z" fill="#71717A"></path>
        <path fill-rule="evenodd" clip-rule="evenodd" d="M9.00781 7.80078C9.00781 7.55916 9.2037 7.36328 9.44531 7.36328C9.68693 7.36328 9.88322 7.55916 9.88322 7.80078C9.88322 8.0424 9.68734 8.23828 9.44572 8.23828C9.2041 8.23828 9.00781 8.0424 9.00781 7.80078Z" fill="#71717A"></path>
        <path fill-rule="evenodd" clip-rule="evenodd" d="M9.00781 9.83203C9.00781 9.59041 9.2037 9.39453 9.44531 9.39453C9.68693 9.39453 9.88322 9.59041 9.88322 9.83203C9.88322 10.0737 9.68734 10.2695 9.44572 10.2695C9.2041 10.2695 9.00781 10.0737 9.00781 9.83203Z" fill="#71717A"></path>
    </symbol>

    <symbol id="icon-clock" viewBox="0 0 14 14" fill="none">
        <path fill-rule="evenodd" clip-rule="evenodd"
              d="M6.99937 2.04297C4.26128 2.04297 2.04102 4.26271 2.04102 7.00131C2.04102 9.73936 4.2613 11.9596 6.99937 11.9596C9.73795 11.9596 11.9577 9.73936 11.9577 7.00131C11.9577 4.26268 9.73795 2.04297 6.99937 2.04297ZM1.16602 7.00131C1.16602 3.77939 3.77809 1.16797 6.99937 1.16797C10.2212 1.16797 12.8327 3.77943 12.8327 7.00131C12.8327 10.2226 10.2212 12.8346 6.99937 12.8346C3.77805 12.8346 1.16602 10.2226 1.16602 7.00131Z"
              fill="#71717A"/>
        <path fill-rule="evenodd" clip-rule="evenodd"
              d="M6.80273 4.14062C7.04441 4.14062 7.24023 4.3365 7.24023 4.57812V6.97511L9.45241 7.01127C9.69403 7.01524 9.88664 7.21427 9.88268 7.45583C9.87877 7.69745 9.67973 7.89012 9.43812 7.88616L6.79562 7.84299C6.5568 7.83908 6.36523 7.64436 6.36523 7.40555V4.57812C6.36523 4.3365 6.56112 4.14062 6.80273 4.14062Z"
              fill="#71717A"/>
    </symbol>
    <symbol id="icon-air" viewBox="0 0 14 14" fill="none">
        <path d="M5.30031 12.6879C5.28238 12.688 5.26446 12.6871 5.24665 12.6849C5.18069 12.6768 5.11746 12.6537 5.06177 12.6173C5.00607 12.581 4.95938 12.5326 4.92524 12.4755L3.70724 10.4432L1.67374 9.22344C1.6166 9.18937 1.56803 9.1427 1.53171 9.08694C1.49539 9.03123 1.47229 8.96794 1.46419 8.9019C1.45608 8.83587 1.46319 8.76885 1.48495 8.70602C1.50671 8.64314 1.54255 8.58609 1.58974 8.53919L2.44023 7.68869C2.48526 7.6426 2.54015 7.60737 2.60077 7.58556C2.66139 7.56368 2.72617 7.55592 2.79024 7.56269L4.16807 7.69919L5.06699 6.61827L2.62224 4.13329C2.58063 4.09114 2.54805 4.04095 2.52648 3.98579C2.50492 3.93063 2.49482 3.87165 2.49681 3.81246C2.4989 3.75317 2.51295 3.69491 2.53811 3.64118C2.56328 3.58745 2.59903 3.53936 2.64324 3.49979C2.74007 3.41404 2.83281 3.32479 2.9244 3.24079C3.13594 3.03435 3.36082 2.84202 3.59757 2.66504C3.83511 2.5083 4.10812 2.41353 4.39168 2.38939C4.67525 2.36524 4.96037 2.41247 5.22099 2.52679C6.17592 2.85812 7.13141 3.19179 8.07933 3.54646C8.09496 3.55243 8.11095 3.55749 8.12716 3.56162C8.13183 3.55579 8.14466 3.54412 8.16275 3.52546C8.69241 2.97887 9.1725 2.48946 9.6905 2.02279C10.4488 1.34087 11.6219 0.962873 12.403 1.74571C13.1502 2.49179 12.8288 3.67479 12.1253 4.45704C11.6342 5.00246 11.0975 5.52396 10.6232 5.98419C10.6095 5.99702 10.5969 6.01085 10.5853 6.02561C10.5853 6.03144 10.5929 6.04719 10.6011 6.06877C10.9552 7.01144 11.2859 7.95877 11.6207 8.9271C11.7353 9.18768 11.7826 9.47281 11.7585 9.75643C11.7343 10.04 11.6394 10.3131 11.4825 10.5505C11.3043 10.7883 11.1109 11.0142 10.9032 11.2266C10.8187 11.317 10.7329 11.4092 10.6477 11.5043C10.6083 11.5486 10.5602 11.5844 10.5064 11.6096C10.4527 11.6348 10.3944 11.6488 10.3351 11.6507C10.2758 11.6531 10.2167 11.6431 10.1614 11.6214C10.1062 11.5997 10.0561 11.5668 10.0142 11.5247L7.52808 9.07877L6.44191 9.97244L6.58483 11.3555C6.59148 11.4202 6.58366 11.4855 6.56185 11.5468C6.54003 11.6081 6.50486 11.6637 6.45883 11.7096L5.60831 12.5607C5.52648 12.6421 5.41575 12.6879 5.30031 12.6879ZM2.60415 8.76144L4.24974 9.74844C4.31136 9.78548 4.36286 9.83716 4.39965 9.89894L5.38723 11.5445L5.69407 11.2371L5.54824 9.82719C5.54093 9.75532 5.55149 9.6827 5.57896 9.61585C5.60644 9.549 5.64998 9.48996 5.70574 9.44394L7.27783 8.15185C7.36131 8.0839 7.46689 8.04901 7.57446 8.05385C7.68208 8.0587 7.78411 8.10291 7.86116 8.1781L10.3059 10.5838C10.4729 10.4126 10.6288 10.2307 10.7726 10.0395C10.87 9.9036 10.961 9.68602 10.7959 9.21294C10.4669 8.26327 10.1367 7.31535 9.78383 6.3756C9.70741 6.20305 9.68886 6.01044 9.73092 5.82645C9.77298 5.64248 9.87337 5.47703 10.0172 5.35479C10.4792 4.90562 11.0053 4.39462 11.4755 3.87079C11.8086 3.50096 12.1872 2.76246 11.7858 2.36346C11.3845 1.96446 10.6472 2.34012 10.2767 2.67321C9.77975 3.12062 9.31075 3.59896 8.79275 4.13154C8.67054 4.27519 8.50522 4.37551 8.32136 4.41756C8.13749 4.45961 7.94499 4.44113 7.7725 4.36487C6.83333 4.01487 5.88483 3.68179 4.9369 3.35279C4.46265 3.18829 4.24506 3.27871 4.10856 3.37671C3.91727 3.52013 3.73566 3.67603 3.5649 3.84337L5.97 6.28811C6.04542 6.36516 6.08964 6.46736 6.09419 6.5751C6.09868 6.68279 6.06316 6.78837 5.9945 6.87144L4.69424 8.43535C4.649 8.49083 4.59062 8.53417 4.52441 8.56136C4.4582 8.58854 4.38624 8.5988 4.31507 8.5911L2.91507 8.45227L2.60415 8.76144Z" fill="#71717A"></path>
    </symbol>

    <symbol id="icon-arrow-r" viewBox="0 0 13 13" fill="none">
        <path d="M6.49978 11.8081L11.8081 6.49978M11.8081 6.49978L6.49978 1.19141M11.8081 6.49978L1.19141 6.49978" stroke="#18181B" stroke-linecap="round" stroke-linejoin="round"></path>
    </symbol>

    <symbol id="icon-view-more" viewBox="0 0 24 24" fill="none">
        <path d="M19.1502 12H4.75" stroke="#161616" stroke-width="1.5" stroke-linecap="square"/>
        <path d="M13.6992 5.97656L19.7492 12.0006L13.6992 18.0256" stroke="#161616"
              stroke-width="1.5" stroke-linecap="square"/>
    </symbol>

    <symbol id="icon-tel" viewBox="0 0 24 24" fill="none">
        <path fill-rule="evenodd" clip-rule="evenodd" d="M6.65717 2.00054C7.77417 2.01554 8.57017 2.85254 9.57717 3.91154C9.82617 4.17254 10.0952 4.45754 10.3962 4.75754C11.8552 6.21754 11.4402 7.40854 11.1052 8.36454C10.7412 9.40754 10.4262 10.3075 12.3122 12.1935C14.1982 14.0795 15.0972 13.7645 16.1392 13.3975C17.0962 13.0635 18.2842 12.6455 19.7462 14.1055C20.0432 14.4025 20.3232 14.6685 20.5832 14.9155C21.6462 15.9275 22.4862 16.7265 22.5003 17.8465C22.5112 18.8005 21.9312 19.7745 20.4992 21.2065L19.8652 20.7765L20.4022 21.2995C20.0852 21.6245 19.2422 22.4905 17.5912 22.5005H17.5612C15.0692 22.5005 11.8202 20.5165 7.90417 16.6015C3.97217 12.6705 1.98517 9.41154 2.00008 6.91454C2.00917 5.26454 2.87417 4.41954 3.19917 4.10254L3.22691 4.07224L3.29417 4.00454C4.72917 2.56954 5.71517 1.97954 6.65717 2.00054ZM6.63817 3.50054H6.63017C6.18111 3.50054 5.49913 3.95054 4.54799 4.87444L4.357 5.062L4.35917 5.06154C4.35917 5.06154 4.34285 5.08026 4.31503 5.10863L4.24817 5.17554C4.00617 5.41054 3.50517 5.89954 3.50012 6.92254C3.49217 8.35354 4.43317 11.0105 8.96417 15.5405C13.4732 20.0485 16.1262 21.0005 17.5612 21.0005H17.5822C18.6052 20.9945 19.0932 20.4935 19.3282 20.2525C19.3992 20.1795 19.4572 20.1245 19.4982 20.0915C20.4952 19.0885 21.0052 18.3435 21.0002 17.8645C20.9942 17.3765 20.3872 16.8005 19.5482 16.0015C19.2812 15.7485 18.9912 15.4715 18.6852 15.1655C17.8912 14.3745 17.5002 14.5095 16.6352 14.8135C15.4402 15.2325 13.8032 15.8065 11.2522 13.2535C8.70017 10.7025 9.27217 9.06554 9.68917 7.86954C9.99117 7.00554 10.1292 6.61254 9.33617 5.81854C9.02617 5.50854 8.74717 5.21454 8.49017 4.94454C7.69617 4.11054 7.12317 3.50754 6.63817 3.50054ZM15.2463 5.55804C17.3273 5.96204 18.9343 7.56804 19.3393 9.65004C19.4183 10.058 19.1533 10.451 18.7473 10.53C18.6983 10.539 18.6503 10.544 18.6023 10.544C18.2503 10.544 17.9373 10.296 17.8673 9.93804C17.5793 8.45804 16.4383 7.31704 14.9603 7.03004C14.5533 6.95104 14.2883 6.55804 14.3673 6.15104C14.4463 5.74404 14.8463 5.47804 15.2463 5.55804ZM15.1864 2.00624C19.2644 2.45924 22.4314 5.62224 22.8884 9.69924C22.9344 10.1112 22.6384 10.4822 22.2274 10.5282C22.1994 10.5312 22.1704 10.5332 22.1424 10.5332C21.7654 10.5332 21.4414 10.2502 21.3984 9.86724C21.0194 6.49124 18.3974 3.87124 15.0204 3.49624C14.6094 3.45024 14.3124 3.08024 14.3584 2.66824C14.4034 2.25724 14.7704 1.95424 15.1864 2.00624Z" fill="#5F6F52"></path>
    </symbol>
  <symbol id="icon-tel-white" viewBox="0 0 24 24" fill="none">
      <path fill-rule="evenodd" clip-rule="evenodd"
            d="M6.65717 2.00054C7.77417 2.01554 8.57017 2.85254 9.57717 3.91154C9.82617 4.17254 10.0952 4.45754 10.3962 4.75754C11.8552 6.21754 11.4402 7.40854 11.1052 8.36454C10.7412 9.40754 10.4262 10.3075 12.3122 12.1935C14.1982 14.0795 15.0972 13.7645 16.1392 13.3975C17.0962 13.0635 18.2842 12.6455 19.7462 14.1055C20.0432 14.4025 20.3232 14.6685 20.5832 14.9155C21.6462 15.9275 22.4862 16.7265 22.5003 17.8465C22.5112 18.8005 21.9312 19.7745 20.4992 21.2065L19.8652 20.7765L20.4022 21.2995C20.0852 21.6245 19.2422 22.4905 17.5912 22.5005H17.5612C15.0692 22.5005 11.8202 20.5165 7.90417 16.6015C3.97217 12.6705 1.98517 9.41154 2.00008 6.91454C2.00917 5.26454 2.87417 4.41954 3.19917 4.10254L3.22691 4.07224L3.29417 4.00454C4.72917 2.56954 5.71517 1.97954 6.65717 2.00054ZM6.63817 3.50054H6.63017C6.18111 3.50054 5.49913 3.95054 4.54799 4.87444L4.357 5.062L4.35917 5.06154C4.35917 5.06154 4.34285 5.08026 4.31503 5.10863L4.24817 5.17554C4.00617 5.41054 3.50517 5.89954 3.50012 6.92254C3.49217 8.35354 4.43317 11.0105 8.96417 15.5405C13.4732 20.0485 16.1262 21.0005 17.5612 21.0005H17.5822C18.6052 20.9945 19.0932 20.4935 19.3282 20.2525C19.3992 20.1795 19.4572 20.1245 19.4982 20.0915C20.4952 19.0885 21.0052 18.3435 21.0002 17.8645C20.9942 17.3765 20.3872 16.8005 19.5482 16.0015C19.2812 15.7485 18.9912 15.4715 18.6852 15.1655C17.8912 14.3745 17.5002 14.5095 16.6352 14.8135C15.4402 15.2325 13.8032 15.8065 11.2522 13.2535C8.70017 10.7025 9.27217 9.06554 9.68917 7.86954C9.99117 7.00554 10.1292 6.61254 9.33617 5.81854C9.02617 5.50854 8.74717 5.21454 8.49017 4.94454C7.69617 4.11054 7.12317 3.50754 6.63817 3.50054ZM15.2463 5.55804C17.3273 5.96204 18.9343 7.56804 19.3393 9.65004C19.4183 10.058 19.1533 10.451 18.7473 10.53C18.6983 10.539 18.6503 10.544 18.6023 10.544C18.2503 10.544 17.9373 10.296 17.8673 9.93804C17.5793 8.45804 16.4383 7.31704 14.9603 7.03004C14.5533 6.95104 14.2883 6.55804 14.3673 6.15104C14.4463 5.74404 14.8463 5.47804 15.2463 5.55804ZM15.1864 2.00624C19.2644 2.45924 22.4314 5.62224 22.8884 9.69924C22.9344 10.1112 22.6384 10.4822 22.2274 10.5282C22.1994 10.5312 22.1704 10.5332 22.1424 10.5332C21.7654 10.5332 21.4414 10.2502 21.3984 9.86724C21.0194 6.49124 18.3974 3.87124 15.0204 3.49624C14.6094 3.45024 14.3124 3.08024 14.3584 2.66824C14.4034 2.25724 14.7704 1.95424 15.1864 2.00624Z"
            fill="#F9F9F6"/>
    </symbol>

    <symbol id="icon-email" viewBox="0 0 24 24" fill="none">
        <path d="M16.431 20.8484H7.56701C6.89159 20.8578 6.22114 20.7315 5.59539 20.4772C4.96963 20.2228 4.40129 19.8454 3.92401 19.3674C3.37586 18.8003 2.94565 18.1301 2.65831 17.3956C2.37096 16.6611 2.23218 15.8769 2.25001 15.0884V8.91144C2.20606 8.17929 2.31067 7.44581 2.55756 6.75514C2.80445 6.06447 3.1885 5.43089 3.68662 4.8925C4.18474 4.35412 4.78662 3.92207 5.45606 3.62235C6.1255 3.32262 6.84865 3.16142 7.58201 3.14844H16.418C17.1514 3.16142 17.8745 3.32262 18.544 3.62235C19.2134 3.92207 19.8153 4.35412 20.3134 4.8925C20.8115 5.43089 21.1956 6.06447 21.4424 6.75514C21.6893 7.44581 21.794 8.17929 21.75 8.91144V15.0884C21.7673 15.8762 21.6283 16.6597 21.3409 17.3935C21.0536 18.1272 20.6237 18.7968 20.076 19.3634C19.5988 19.8423 19.0303 20.2205 18.4041 20.4756C17.778 20.7307 17.107 20.8575 16.431 20.8484ZM7.58001 19.3484H16.429C16.9081 19.3567 17.384 19.2687 17.8284 19.0895C18.2728 18.9104 18.6767 18.6437 19.016 18.3054C19.4241 17.8773 19.7432 17.3726 19.955 16.8204C20.1668 16.2682 20.2671 15.6796 20.25 15.0884V8.91144C20.25 6.44144 18.639 4.64844 16.418 4.64844H7.58201C5.36101 4.64844 3.75001 6.44144 3.75001 8.91144V15.0884C3.73345 15.6789 3.83396 16.2668 4.04575 16.8183C4.25755 17.3697 4.57643 17.8738 4.98401 18.3014C5.32308 18.6395 5.72661 18.9061 6.17066 19.0852C6.61471 19.2644 7.09024 19.3525 7.56901 19.3444L7.58001 19.3484Z" fill="#5F6F52"></path>
        <path d="M12.0253 13.6173C11.3889 13.617 10.7715 13.4005 10.2743 13.0033L6.2363 9.74832C6.08142 9.62341 5.98249 9.44208 5.9613 9.24423C5.94011 9.04638 5.99839 8.84821 6.1233 8.69332C6.24822 8.53844 6.42955 8.43952 6.6274 8.41833C6.82525 8.39714 7.02342 8.45541 7.1783 8.58032L11.2113 11.8323C11.4435 12.0179 11.732 12.1191 12.0293 12.1191C12.3266 12.1191 12.6151 12.0179 12.8473 11.8323L16.8393 8.58632C16.9937 8.46074 17.1916 8.40163 17.3895 8.42197C17.5875 8.44232 17.7692 8.54047 17.8948 8.69482C18.0204 8.84918 18.0795 9.0471 18.0592 9.24505C18.0388 9.44299 17.9407 9.62474 17.7863 9.75032L13.7863 13.0023C13.2858 13.4006 12.665 13.6174 12.0253 13.6173Z" fill="#5F6F52"></path>
    </symbol>
    <symbol id="icon-email-white" viewBox="0 0 24 24" fill="none">
        <path d="M16.4329 20.8484H7.56896C6.89354 20.8578 6.22309 20.7315 5.59734 20.4772C4.97158 20.2228 4.40324 19.8454 3.92596 19.3674C3.37781 18.8003 2.9476 18.1301 2.66026 17.3956C2.37291 16.6611 2.23413 15.8769 2.25196 15.0884V8.91144C2.20801 8.17929 2.31262 7.44581 2.55951 6.75514C2.8064 6.06447 3.19045 5.43089 3.68857 4.8925C4.18669 4.35412 4.78857 3.92207 5.45801 3.62235C6.12745 3.32262 6.8506 3.16142 7.58396 3.14844H16.4199C17.1533 3.16142 17.8764 3.32262 18.5459 3.62235C19.2153 3.92207 19.8172 4.35412 20.3153 4.8925C20.8134 5.43089 21.1975 6.06447 21.4443 6.75514C21.6912 7.44581 21.7959 8.17929 21.7519 8.91144V15.0884C21.7692 15.8762 21.6302 16.6597 21.3428 17.3935C21.0555 18.1272 20.6257 18.7968 20.0779 19.3634C19.6007 19.8423 19.0322 20.2205 18.406 20.4756C17.78 20.7307 17.1089 20.8575 16.4329 20.8484ZM7.58196 19.3484H16.431C16.9101 19.3567 17.3859 19.2687 17.8303 19.0895C18.2747 18.9104 18.6786 18.6437 19.018 18.3054C19.4261 17.8773 19.7451 17.3726 19.9569 16.8204C20.1687 16.2682 20.269 15.6796 20.2519 15.0884V8.91144C20.2519 6.44144 18.6409 4.64844 16.4199 4.64844H7.58396C5.36296 4.64844 3.75196 6.44144 3.75196 8.91144V15.0884C3.7354 15.6789 3.83591 16.2668 4.0477 16.8183C4.2595 17.3697 4.57838 17.8738 4.98596 18.3014C5.32503 18.6395 5.72856 18.9061 6.17261 19.0852C6.61666 19.2644 7.09219 19.3525 7.57096 19.3444L7.58196 19.3484Z"
              fill="#F9F9F6"/>
        <path d="M12.0214 13.6173C11.385 13.617 10.7676 13.4005 10.2704 13.0033L6.23239 9.74832C6.07751 9.62341 5.97858 9.44208 5.95739 9.24423C5.9362 9.04638 5.99448 8.84821 6.11939 8.69332C6.24431 8.53844 6.42564 8.43952 6.62349 8.41833C6.82134 8.39714 7.01951 8.45541 7.17439 8.58032L11.2074 11.8323C11.4396 12.0179 11.7281 12.1191 12.0254 12.1191C12.3227 12.1191 12.6112 12.0179 12.8434 11.8323L16.8354 8.58632C16.9898 8.46074 17.1877 8.40163 17.3856 8.42197C17.5836 8.44232 17.7653 8.54047 17.8909 8.69482C18.0165 8.84918 18.0756 9.0471 18.0553 9.24505C18.0349 9.44299 17.9368 9.62474 17.7824 9.75032L13.7824 13.0023C13.2819 13.4006 12.6611 13.6174 12.0214 13.6173Z"
              fill="#F9F9F6"/>
    </symbol>
    <symbol id="icon-map" viewBox="0 0 24 24" fill="none">
        <path fill-rule="evenodd" clip-rule="evenodd" d="M3.9902 3.89737C4.97468 2.84117 6.37669 2.25 8.03216 2.25H16.4669C18.1262 2.25 19.5288 2.84084 20.5129 3.89765C21.4913 4.94841 22 6.39889 22 8.02638V15.9736C22 17.6011 21.4913 19.0516 20.5127 20.1024C19.5285 21.1592 18.1257 21.75 16.4659 21.75H8.03216C7.83356 21.75 7.63863 21.7415 7.44767 21.7248C7.40321 21.7245 7.35816 21.7203 7.31293 21.7118L7.3108 21.7114C5.96572 21.5643 4.82436 21.0023 3.98657 20.1023C3.00842 19.0515 2.5 17.601 2.5 15.9736V8.02638C2.5 7.27229 2.60963 6.55637 2.82459 5.90068L2.82522 5.89758C2.83905 5.83054 2.86143 5.76745 2.89098 5.70921C3.14098 5.02623 3.5091 4.41351 3.9902 3.89737ZM4.10387 6.92712C4.03586 7.26992 4 7.63705 4 8.02638V15.9736C4 17.2914 4.40861 18.3541 5.08451 19.0802C5.53285 19.5619 6.12367 19.9226 6.85148 20.1086L9.13694 7.96529L4.10387 6.92712ZM10.1184 6.63616L4.64387 5.50692C4.77466 5.29232 4.92321 5.09633 5.08745 4.92012C5.75921 4.19943 6.74828 3.75 8.03216 3.75H16.4669C17.7556 3.75 18.7446 4.19975 19.4151 4.91984C20.0912 5.64597 20.5 6.70868 20.5 8.02638V8.77758L10.2056 6.65415C10.1872 6.6492 10.1684 6.64491 10.1493 6.64132C10.139 6.63938 10.1287 6.63766 10.1184 6.63616ZM10.6062 8.26836L8.35121 20.25H16.4659C17.7552 20.25 18.7444 19.8002 19.415 19.0801C20.0912 18.354 20.5 17.2913 20.5 15.9736V10.3092L10.6062 8.26836ZM14.8749 12.4906C13.8102 12.4906 12.9473 13.3535 12.9473 14.4182C12.9473 15.0965 13.3644 15.8536 13.9362 16.4973C14.211 16.8065 14.4941 17.0581 14.7218 17.2265C14.7795 17.2691 14.8308 17.3043 14.8749 17.3326C14.919 17.3043 14.9703 17.2691 15.028 17.2265C15.2557 17.0581 15.5388 16.8065 15.8136 16.4973C16.3854 15.8536 16.8025 15.0965 16.8025 14.4182C16.8025 13.3535 15.9396 12.4906 14.8749 12.4906ZM14.7201 17.418C14.7201 17.418 14.7241 17.4161 14.7314 17.4137C14.7236 17.4171 14.7201 17.418 14.7201 17.418ZM15.0184 17.4137C15.0257 17.4161 15.0297 17.418 15.0297 17.418C15.0297 17.418 15.0261 17.4171 15.0184 17.4137ZM11.4473 14.4182C11.4473 12.5251 12.9818 10.9906 14.8749 10.9906C16.768 10.9906 18.3025 12.5251 18.3025 14.4182C18.3025 15.645 17.5949 16.7507 16.9349 17.4935C16.5938 17.8775 16.2343 18.2001 15.9198 18.4326C15.7633 18.5483 15.6067 18.65 15.4599 18.7267C15.3495 18.7843 15.1259 18.8937 14.8749 18.8937C14.6239 18.8937 14.4003 18.7843 14.2898 18.7267C14.143 18.65 13.9865 18.5483 13.83 18.4326C13.5155 18.2001 13.156 17.8775 12.8148 17.4935C12.1549 16.7507 11.4473 15.645 11.4473 14.4182ZM14.8748 13.645C15.2891 13.645 15.6248 13.9808 15.6248 14.395V14.4261C15.6248 14.8404 15.2891 15.1761 14.8748 15.1761C14.4606 15.1761 14.1248 14.8404 14.1248 14.4261V14.395C14.1248 13.9808 14.4606 13.645 14.8748 13.645Z" fill="#5F6F52"></path>
    </symbol>
    <symbol id="icon-map-white" viewBox="0 0 24 24" fill="none">
        <path fill-rule="evenodd" clip-rule="evenodd"
              d="M3.9902 3.89737C4.97468 2.84117 6.37669 2.25 8.03216 2.25H16.4669C18.1262 2.25 19.5288 2.84084 20.5129 3.89765C21.4913 4.94841 22 6.39889 22 8.02638V15.9736C22 17.6011 21.4913 19.0516 20.5127 20.1024C19.5285 21.1592 18.1257 21.75 16.4659 21.75H8.03216C7.83356 21.75 7.63863 21.7415 7.44767 21.7248C7.40321 21.7245 7.35816 21.7203 7.31293 21.7118L7.3108 21.7114C5.96572 21.5643 4.82436 21.0023 3.98657 20.1023C3.00842 19.0515 2.5 17.601 2.5 15.9736V8.02638C2.5 7.27229 2.60963 6.55637 2.82459 5.90068L2.82522 5.89758C2.83905 5.83054 2.86143 5.76745 2.89098 5.70921C3.14098 5.02623 3.5091 4.41351 3.9902 3.89737ZM4.10387 6.92712C4.03586 7.26992 4 7.63705 4 8.02638V15.9736C4 17.2914 4.40861 18.3541 5.08451 19.0802C5.53285 19.5619 6.12367 19.9226 6.85148 20.1086L9.13694 7.96529L4.10387 6.92712ZM10.1184 6.63616L4.64387 5.50692C4.77466 5.29232 4.92321 5.09633 5.08745 4.92012C5.75921 4.19943 6.74828 3.75 8.03216 3.75H16.4669C17.7556 3.75 18.7446 4.19975 19.4151 4.91984C20.0912 5.64597 20.5 6.70868 20.5 8.02638V8.77758L10.2056 6.65415C10.1872 6.6492 10.1684 6.64491 10.1493 6.64132C10.139 6.63938 10.1287 6.63766 10.1184 6.63616ZM10.6062 8.26836L8.35121 20.25H16.4659C17.7552 20.25 18.7444 19.8002 19.415 19.0801C20.0912 18.354 20.5 17.2913 20.5 15.9736V10.3092L10.6062 8.26836ZM14.8749 12.4906C13.8102 12.4906 12.9473 13.3535 12.9473 14.4182C12.9473 15.0965 13.3644 15.8536 13.9362 16.4973C14.211 16.8065 14.4941 17.0581 14.7218 17.2265C14.7795 17.2691 14.8308 17.3043 14.8749 17.3326C14.919 17.3043 14.9703 17.2691 15.028 17.2265C15.2557 17.0581 15.5388 16.8065 15.8136 16.4973C16.3854 15.8536 16.8025 15.0965 16.8025 14.4182C16.8025 13.3535 15.9396 12.4906 14.8749 12.4906ZM14.7201 17.418C14.7201 17.418 14.7241 17.4161 14.7314 17.4137C14.7236 17.4171 14.7201 17.418 14.7201 17.418ZM15.0184 17.4137C15.0257 17.4161 15.0297 17.418 15.0297 17.418C15.0297 17.418 15.0261 17.4171 15.0184 17.4137ZM11.4473 14.4182C11.4473 12.5251 12.9818 10.9906 14.8749 10.9906C16.768 10.9906 18.3025 12.5251 18.3025 14.4182C18.3025 15.645 17.5949 16.7507 16.9349 17.4935C16.5938 17.8775 16.2343 18.2001 15.9198 18.4326C15.7633 18.5483 15.6067 18.65 15.4599 18.7267C15.3495 18.7843 15.1259 18.8937 14.8749 18.8937C14.6239 18.8937 14.4003 18.7843 14.2898 18.7267C14.143 18.65 13.9865 18.5483 13.83 18.4326C13.5155 18.2001 13.156 17.8775 12.8148 17.4935C12.1549 16.7507 11.4473 15.645 11.4473 14.4182ZM14.8748 13.645C15.2891 13.645 15.6248 13.9808 15.6248 14.395V14.4261C15.6248 14.8404 15.2891 15.1761 14.8748 15.1761C14.4606 15.1761 14.1248 14.8404 14.1248 14.4261V14.395C14.1248 13.9808 14.4606 13.645 14.8748 13.645Z"
              fill="#F9F9F6"/>
    </symbol>
    <symbol id="icon-play" viewBox="0 0 80 87" fill="none">
        <path fill-rule="evenodd" clip-rule="evenodd" d="M40.8333 16.0192C25.1848 16.0192 12.5 28.7528 12.5 44.4615C12.5 60.1704 25.1848 72.9038 40.8333 72.9038C56.479 72.9038 69.1667 60.1701 69.1667 44.4615C69.1667 28.753 56.479 16.0192 40.8333 16.0192ZM7.5 44.4615C7.5 25.9808 22.4234 11 40.8333 11C59.24 11 74.1667 25.9806 74.1667 44.4615C74.1667 62.9423 59.24 77.9231 40.8333 77.9231C22.4234 77.9231 7.5 62.9423 7.5 44.4615Z" fill="white"></path>
        <path fill-rule="evenodd" clip-rule="evenodd" d="M33.0469 30.3027L55.235 44.446L33.0469 58.5895V30.3027ZM38.047 39.4355V49.4569L45.9073 44.446L38.047 39.4355Z" fill="white"></path>
    </symbol>
    <symbol id="icon-send" viewBox="0 0 20 20" fill="none">
        <path d="M19.4274 0.578299C18.9274 0.0672987 18.1874 -0.121701 17.4974 0.0782986L1.40742 4.7273C0.67942 4.9293 0.16342 5.5063 0.0244202 6.2383C-0.11758 6.9843 0.37842 7.9323 1.02642 8.3283L6.05742 11.4003C6.57342 11.7163 7.23942 11.6373 7.66642 11.2093L13.4274 5.4483C13.7174 5.1473 14.1974 5.1473 14.4874 5.4483C14.7774 5.7373 14.7774 6.2083 14.4874 6.5083L8.71642 12.2693C8.28842 12.6973 8.20842 13.3613 8.52342 13.8783L11.5974 18.9283C11.9574 19.5273 12.5774 19.8683 13.2574 19.8683C13.3374 19.8683 13.4274 19.8683 13.5074 19.8573C14.2874 19.7583 14.9074 19.2273 15.1374 18.4773L19.9074 2.5083C20.1174 1.8283 19.9274 1.0883 19.4274 0.578299Z" fill="white"></path>
        <path opacity="0.4" d="M7.45139 17.1423C7.74339 17.4353 7.74339 17.9103 7.45139 18.2033L6.08539 19.5683C5.93939 19.7153 5.74739 19.7883 5.55539 19.7883C5.36339 19.7883 5.17139 19.7153 5.02539 19.5683C4.73239 19.2753 4.73239 18.8013 5.02539 18.5083L6.39039 17.1423C6.68339 16.8503 7.15839 16.8503 7.45139 17.1423ZM6.66769 13.3543C6.95969 13.6473 6.95969 14.1223 6.66769 14.4153L5.30169 15.7803C5.15569 15.9273 4.96369 16.0003 4.77169 16.0003C4.57969 16.0003 4.38769 15.9273 4.24169 15.7803C3.94869 15.4873 3.94869 15.0133 4.24169 14.7203L5.60669 13.3543C5.89969 13.0623 6.37469 13.0623 6.66769 13.3543ZM2.90649 12.1619C3.19849 12.4549 3.19849 12.9299 2.90649 13.2229L1.54049 14.5879C1.39449 14.7349 1.20249 14.8079 1.01049 14.8079C0.818492 14.8079 0.626492 14.7349 0.480492 14.5879C0.187492 14.2949 0.187492 13.8209 0.480492 13.5279L1.84549 12.1619C2.13849 11.8699 2.61349 11.8699 2.90649 12.1619Z" fill="white"></path>
    </symbol>

    <symbol id="icon-refresh" viewBox="0 0 24 25" fill="none">
        <path d="M15.3862 5.82422C18.4872 5.82422 21.0002 8.33822 21.0002 11.4392C21.0002 14.5402 18.4872 17.0532 15.3862 17.0532H8.61523" stroke="#5F6F52" stroke-width="1.5" stroke-linecap="round" stroke-linejoin="round"></path>
        <path d="M4.309 15.0422C3.492 14.0672 3 12.8112 3 11.4392C3 8.33822 5.514 5.82422 8.615 5.82422H12.0005" stroke="#5F6F52" stroke-width="1.5" stroke-linecap="round" stroke-linejoin="round"></path>
        <path d="M11.2363 14.4297L8.61328 17.0527L11.2363 19.6767" stroke="#5F6F52" stroke-width="1.5" stroke-linecap="round" stroke-linejoin="round"></path>
    </symbol>

    <symbol id="icon-next" viewBox="0 0 44 44" fill="none">
        <rect width="44" height="44" rx="22" fill="white"></rect>
        <path fill-rule="evenodd" clip-rule="evenodd" d="M22.8839 17.227C23.1768 16.9341 23.6517 16.9341 23.9445 17.227L28.1872 21.4697C28.4801 21.7626 28.4801 22.2374 28.1872 22.5303L23.9445 26.773C23.6517 27.0659 23.1768 27.0659 22.8839 26.773C22.591 26.4801 22.591 26.0052 22.8839 25.7123L25.8462 22.75L16.3432 22.75C15.9289 22.75 15.5932 22.4142 15.5932 22C15.5932 21.5858 15.9289 21.25 16.3431 21.25L25.8462 21.25L22.8839 18.2877C22.591 17.9948 22.591 17.5199 22.8839 17.227Z" fill="#5F6F52"></path>
    </symbol>
    <symbol id="icon-prev" viewBox="0 0 44 44" fill="none">
        <rect width="44" height="44" rx="22" fill="white"/>
        <path fill-rule="evenodd" clip-rule="evenodd" d="M21.1161 26.7732C20.8232 27.0661 20.3483 27.0661 20.0555 26.7732L15.8128 22.5305C15.5199 22.2377 15.5199 21.7628 15.8128 21.4699L20.0555 17.2272C20.3483 16.9344 20.8232 16.9344 21.1161 17.2272C21.409 17.5201 21.409 17.995 21.1161 18.2879L18.1538 21.2502L27.6568 21.2502C28.0711 21.2502 28.4068 21.586 28.4068 22.0002C28.4068 22.4145 28.0711 22.7502 27.6569 22.7502L18.1538 22.7502L21.1161 25.7125C21.409 26.0054 21.409 26.4803 21.1161 26.7732Z" fill="#5F6F52"/>
    </symbol>
    <symbol id="icon-users" viewBox="0 0 71 71" fill="none">
        <path fill-rule="evenodd" clip-rule="evenodd" d="M69.067 49.0163C66.9075 42.2535 61.1831 38.384 53.3287 38.384H53.2725C50.0716 38.3544 47.2109 38.9994 44.7969 40.233C51.533 42.3955 56.5267 47.1939 58.8253 53.9833C62.4729 53.4774 65.6442 52.3562 68.4487 50.6434L69.3747 50.0547L69.067 49.0163Z" fill="#5F6F52"></path>
        <path fill-rule="evenodd" clip-rule="evenodd" d="M48.1953 33.2777C49.71 34.1208 51.4229 34.5971 53.2748 34.5971C59.082 34.5971 63.7946 29.8815 63.7946 24.0743C63.7946 18.2966 59.082 13.5811 53.2748 13.5811C52.124 13.5811 51.0294 13.7793 49.991 14.1136C51.5057 16.5571 52.3754 19.4445 52.3754 22.5034C52.3754 26.6569 50.8312 30.417 48.1953 33.2777Z" fill="#5F6F52"></path>
        <path fill-rule="evenodd" clip-rule="evenodd" d="M27.5404 40.1785C25.1826 39.0011 22.4047 38.3828 19.2629 38.3828H19.1505C11.2961 38.3828 5.57177 42.2553 3.43881 49.0151L3.10156 50.0534L4.02752 50.6421C6.69298 52.2722 9.83769 53.3638 13.3433 53.9259C15.6715 47.1099 20.751 42.2819 27.5404 40.1785Z" fill="#5F6F52"></path>
        <path fill-rule="evenodd" clip-rule="evenodd" d="M19.2103 34.5942C21.0622 34.5942 22.7721 34.1179 24.2897 33.2748C21.6509 30.4141 20.1067 26.654 20.1067 22.5005C20.1067 19.4445 20.9764 16.5542 22.494 14.1136C21.4557 13.7763 20.3611 13.5781 19.2103 13.5781C13.4031 13.5781 8.6875 18.2937 8.6875 24.0713C8.6875 29.8816 13.4031 34.5942 19.2103 34.5942Z" fill="#5F6F52"></path>
        <path fill-rule="evenodd" clip-rule="evenodd" d="M36.1386 41.7227C36.0913 41.7227 36.0469 41.7227 36.0025 41.7227C25.9028 41.7227 18.5395 46.6867 15.8001 55.3517L15.4688 56.3989L16.4065 56.9729C21.7552 60.2329 28.1452 61.8186 35.9404 61.8186H36.1919C43.993 61.8186 50.386 60.2329 55.7346 56.9729L56.6754 56.3989L56.344 55.3517C53.6017 46.6867 46.2413 41.7227 36.1386 41.7227Z" fill="#5F6F52"></path>
        <path fill-rule="evenodd" clip-rule="evenodd" d="M36.2424 35.8508C43.5969 35.8508 49.5786 29.8691 49.5786 22.5146C49.5786 15.1631 43.5969 9.1814 36.2424 9.1814C28.888 9.1814 22.9062 15.1631 22.9062 22.5146C22.9062 29.8691 28.888 35.8508 36.2424 35.8508Z" fill="#5F6F52"></path>
    </symbol>
    <symbol id="icon-search" viewBox="0 0 20 20" fill="none">
        <path d="M15.6207 15.6543C16.0072 15.2704 16.6268 15.2704 17.0134 15.6543L19.568 17.7164H19.6124C20.1292 18.2388 20.1292 19.0858 19.6124 19.6082C19.0955 20.1306 18.2576 20.1306 17.7407 19.6082L15.6207 17.1785L15.5403 17.0877C15.3904 16.898 15.3076 16.6615 15.3076 16.4164C15.3076 16.1304 15.4203 15.8562 15.6207 15.6543ZM8.57764 0C10.8526 0 13.0343 0.913436 14.6429 2.53936C16.2516 4.16529 17.1553 6.37052 17.1553 8.66993C17.1553 13.4582 13.3149 17.3399 8.57764 17.3399C3.84034 17.3399 0 13.4582 0 8.66993C0 3.88166 3.84034 0 8.57764 0Z" fill="white"></path>
    </symbol>
    <symbol id="icon-menu" viewBox="0 0 24 24" fill="none">
        <path fill-rule="evenodd" clip-rule="evenodd" d="M20 20H4C3.448 20 3 19.553 3 19C3 18.447 3.448 18 4 18H20C20.552 18 21 18.447 21 19C21 19.553 20.552 20 20 20Z" fill="white"></path>
        <path fill-rule="evenodd" clip-rule="evenodd" d="M20 6H4C3.448 6 3 5.553 3 5C3 4.447 3.448 4 4 4H20C20.552 4 21 4.447 21 5C21 5.553 20.552 6 20 6Z" fill="white"></path>
        <path fill-rule="evenodd" clip-rule="evenodd" d="M20 13H4C3.448 13 3 12.553 3 12C3 11.447 3.448 11 4 11H20C20.552 11 21 11.447 21 12C21 12.553 20.552 13 20 13Z" fill="white"></path>
    </symbol>
    <symbol id="icon-play-video-sm" viewBox="0 0 80 87" fill="none">
        <path fill-rule="evenodd" clip-rule="evenodd"
              d="M40.8333 16.0192C25.1848 16.0192 12.5 28.7528 12.5 44.4615C12.5 60.1704 25.1848 72.9038 40.8333 72.9038C56.479 72.9038 69.1667 60.1701 69.1667 44.4615C69.1667 28.753 56.479 16.0192 40.8333 16.0192ZM7.5 44.4615C7.5 25.9808 22.4234 11 40.8333 11C59.24 11 74.1667 25.9806 74.1667 44.4615C74.1667 62.9423 59.24 77.9231 40.8333 77.9231C22.4234 77.9231 7.5 62.9423 7.5 44.4615Z"
              fill="white"/>
        <path fill-rule="evenodd" clip-rule="evenodd"
              d="M33.0469 30.3027L55.235 44.446L33.0469 58.5895V30.3027ZM38.047 39.4355V49.4569L45.9073 44.446L38.047 39.4355Z"
              fill="white"/>
    </symbol>
    <symbol id="icon-arrow-b" viewBox="0 0 20 20" fill="none">
        <path d="M6.49978 11.8081L11.8081 6.49978M11.8081 6.49978L6.49978 1.19141M11.8081 6.49978L1.19141 6.49978" stroke="#5F6F52" stroke-linecap="round" stroke-linejoin="round"></path>
    </symbol>

    <symbol id="icon-arrow-b" viewBox="0 0 20 20" fill="none">
        <path d="M6.49978 11.8081L11.8081 6.49978M11.8081 6.49978L6.49978 1.19141M11.8081 6.49978L1.19141 6.49978" stroke="#5F6F52" stroke-linecap="round" stroke-linejoin="round"></path>
    </symbol>
    <symbol id="icon-location" viewBox="0 0 14 14" fill="none">
        <path fill-rule="evenodd" clip-rule="evenodd" d="M7.14601 2.1875C4.96301 2.1875 3.19336 3.95708 3.19336 6.14069C3.19336 7.54273 4.03055 8.9684 5.01454 10.0763C5.50005 10.6229 6.00454 11.073 6.42373 11.3829C6.63378 11.5383 6.81584 11.6535 6.95806 11.7278C7.06749 11.7849 7.12688 11.8035 7.14601 11.8096C7.16508 11.8035 7.22452 11.7849 7.3339 11.7278C7.47612 11.6535 7.65817 11.5383 7.86829 11.3829C8.28742 11.073 8.79194 10.6229 9.27745 10.0763C10.2614 8.9684 11.0986 7.54273 11.0986 6.14069C11.0986 3.95708 9.32896 2.1875 7.14601 2.1875ZM2.31836 6.14069C2.31836 3.4739 4.47969 1.3125 7.14601 1.3125C9.81231 1.3125 11.9736 3.4739 11.9736 6.14069C11.9736 7.86258 10.9671 9.49153 9.93166 10.6573C9.40747 11.2475 8.85838 11.7391 8.38851 12.0865C8.15407 12.2599 7.93275 12.4022 7.73879 12.5035C7.56607 12.5936 7.34901 12.6875 7.14601 12.6875C6.94301 12.6875 6.72595 12.5936 6.55317 12.5035C6.35921 12.4022 6.13795 12.2599 5.90351 12.0865C5.43364 11.7391 4.88452 11.2475 4.36033 10.6573C3.32492 9.49153 2.31836 7.86258 2.31836 6.14069Z" fill="#71717A"></path>
        <path fill-rule="evenodd" clip-rule="evenodd" d="M6.20431 4.99244C5.80424 5.12174 5.59432 5.58255 5.75576 6.08759C5.8864 6.49341 6.2539 6.89131 6.64648 7.21033C6.83408 7.36281 7.01287 7.48566 7.14517 7.57054C7.2787 7.48461 7.45941 7.36013 7.6487 7.20607C8.04397 6.88442 8.40943 6.48746 8.53438 6.08998L8.53502 6.08788C8.6962 5.58421 8.48625 5.12287 8.08597 4.99279C7.85345 4.92058 7.60099 4.96356 7.4068 5.10796C7.25145 5.22345 7.03877 5.22316 6.88372 5.10727C6.68877 4.96148 6.43595 4.91879 6.20431 4.99244ZM7.14575 8.08171C6.93645 8.4659 6.93634 8.46584 6.93622 8.46578L6.93546 8.46537L6.934 8.46456L6.9294 8.46199L6.91411 8.45347C6.90128 8.44618 6.88325 8.43591 6.86068 8.42267C6.81559 8.39619 6.75212 8.35786 6.67547 8.30875C6.52264 8.21086 6.31485 8.06836 6.09465 7.88939C5.66948 7.54388 5.1338 7.01171 4.92266 6.35516L4.92247 6.35452C4.65962 5.53296 4.94546 4.47873 5.93656 4.1594L5.93785 4.159C6.34087 4.03048 6.77347 4.06498 7.1464 4.24697C7.5181 4.0668 7.94836 4.03279 8.34917 4.15832L8.35261 4.15939C9.34241 4.4783 9.63134 5.531 9.36878 6.35341C9.16315 7.00611 8.6259 7.53898 8.201 7.88478C7.98027 8.06433 7.77167 8.20789 7.6182 8.30665C7.54125 8.35617 7.47744 8.39485 7.43217 8.42162C7.40948 8.43498 7.3914 8.44536 7.37856 8.45271L7.36322 8.46135L7.35867 8.46386L7.35715 8.46467L7.35663 8.46502C7.35651 8.46502 7.35622 8.4652 7.14575 8.08171ZM7.14575 8.08171L7.35663 8.46502C7.22596 8.53671 7.06718 8.53706 6.93622 8.46578L7.14575 8.08171Z" fill="#71717A"></path>
    </symbol>
    <symbol id="icon-star" viewBox="0 0 14 14" fill="none">
        <path fill-rule="evenodd" clip-rule="evenodd"
              d="M6.40136 3.3182L5.41107 5.36133L5.41042 5.36267C5.25189 5.68686 4.94987 5.91013 4.60242 5.96081C4.60217 5.96087 4.60192 5.96092 4.60167 5.96092L2.38313 6.29126C2.32655 6.29899 2.27448 6.32626 2.23557 6.36787C2.1402 6.47046 2.14303 6.63348 2.24213 6.7326C2.24204 6.73254 2.24223 6.73271 2.24213 6.7326L3.84484 8.323C3.84499 8.32311 3.84514 8.32328 3.84528 8.32345C4.09983 8.57511 4.2169 8.94141 4.1562 9.30087C4.15619 9.30093 4.15621 9.30087 4.1562 9.30087L3.77751 11.5453C3.76909 11.6012 3.7782 11.6591 3.8047 11.7113C3.87197 11.8416 4.02832 11.8909 4.15429 11.8218L4.15783 11.8198L6.13816 10.7587C6.45016 10.5921 6.82093 10.5918 7.13288 10.7584L9.11581 11.821C9.16575 11.8484 9.22263 11.8583 9.27837 11.8492C9.41942 11.8255 9.51491 11.6892 9.49341 11.5443L9.11495 9.30182C9.11489 9.30166 9.11495 9.30199 9.11495 9.30182C9.05352 8.94163 9.17058 8.57444 9.42592 8.32267C9.42613 8.32244 9.4264 8.32216 9.42662 8.32194L11.027 6.73232C11.0269 6.73238 11.027 6.73226 11.027 6.73232C11.0673 6.69206 11.0938 6.63813 11.1012 6.58039C11.1191 6.43838 11.0225 6.30913 10.8867 6.2907L10.8816 6.29003L8.66769 5.96036C8.66742 5.96036 8.66715 5.9603 8.66693 5.96025C8.31962 5.90962 8.01715 5.68631 7.85909 5.36128L6.87006 3.31803C6.84466 3.2682 6.80566 3.22853 6.75864 3.20347L6.75788 3.20307C6.62821 3.13359 6.46923 3.18536 6.40136 3.3182ZM7.13126 2.45702C6.60302 2.17434 5.95281 2.38719 5.67894 2.93373L4.68531 4.98368C4.68523 4.98386 4.68514 4.98403 4.68506 4.9842C4.64647 5.0627 4.57304 5.11686 4.48873 5.12909L2.27389 5.45884C2.03683 5.4919 1.81694 5.60663 1.65062 5.7849C1.24356 6.22205 1.25667 6.91695 1.67832 7.33746L1.67906 7.33818L3.28293 8.9297L3.28364 8.93043C3.34293 8.98895 3.36978 9.07374 3.3558 9.15645L2.97661 11.4038L2.97585 11.4085C2.93819 11.6476 2.97784 11.8911 3.08628 12.1037L3.08681 12.1047C3.36384 12.6441 4.01087 12.8501 4.5333 12.5648L6.51159 11.5048C6.51153 11.5048 6.51164 11.5047 6.51159 11.5048C6.58959 11.4631 6.682 11.4631 6.75994 11.5048L8.73551 12.5634C8.7361 12.5637 8.73665 12.564 8.73724 12.5643C8.94243 12.6762 9.17713 12.7164 9.40658 12.6787L9.40739 12.6786C9.99136 12.5812 10.3895 12.0132 10.2952 11.4086L9.91521 9.1565L9.91504 9.15561C9.90085 9.07278 9.92756 8.98867 9.98681 8.93038L11.591 7.33695C11.764 7.16447 11.8752 6.93622 11.9067 6.69066L11.9068 6.68998C11.9829 6.09056 11.5762 5.53868 10.9952 5.45825L8.78204 5.12874L8.78063 5.12853C8.69607 5.11626 8.623 5.06196 8.58509 4.98414C8.58503 4.98407 8.58509 4.98419 8.58509 4.98414L7.59514 2.93898L7.59265 2.93389C7.49027 2.72942 7.3294 2.56268 7.13126 2.45702Z"
              fill="#71717A"/>
    </symbol>
    <symbol id="icon-rate" viewBox="0 0 14 14" fill="none">
        <path d="M10.9398 5.68454C10.7473 5.68454 10.584 5.56204 10.5257 5.3812C10.3098 4.72204 9.79065 4.20287 9.13732 3.99287C8.95648 3.93454 8.83398 3.76537 8.83398 3.5787C8.83398 3.39204 8.95648 3.22287 9.13732 3.16454C9.79648 2.9487 10.3157 2.42954 10.5257 1.7762C10.584 1.59537 10.7532 1.47287 10.9398 1.47287C11.1265 1.47287 11.2957 1.59537 11.354 1.7762C11.5698 2.43537 12.089 2.95454 12.7423 3.16454C12.9232 3.22287 13.0457 3.39204 13.0457 3.5787C13.0457 3.76537 12.9232 3.93454 12.7423 3.99287C12.0832 4.2087 11.564 4.72787 11.354 5.3812C11.2957 5.56204 11.1265 5.68454 10.9398 5.68454ZM10.2282 3.5787C10.5023 3.77704 10.7415 4.0162 10.9398 4.29037C11.1382 4.0162 11.3773 3.77704 11.6515 3.5787C11.3773 3.38037 11.1382 3.1412 10.9398 2.86704C10.7415 3.1412 10.5023 3.38037 10.2282 3.5787Z"
              fill="#71717A"/>
        <path d="M6.41245 12.5279C6.10328 12.5279 5.82908 12.3296 5.72992 12.0321L4.85492 9.34294L2.16575 8.46795C1.86825 8.36878 1.66992 8.10045 1.66992 7.78545C1.66992 7.47045 1.86825 7.20211 2.16575 7.10295L4.85492 6.22795L5.72992 3.5388C5.82908 3.2413 6.09745 3.04297 6.41245 3.04297C6.72745 3.04297 6.99578 3.2413 7.09494 3.5388L7.96994 6.22795L10.6591 7.10295C10.9566 7.20211 11.1549 7.47045 11.1549 7.78545C11.1549 8.10045 10.9566 8.36878 10.6591 8.46795L7.96994 9.34294L7.09494 12.0321C6.99578 12.3296 6.72745 12.5279 6.41245 12.5279ZM2.90076 7.78545L5.20492 8.53211C5.42659 8.60211 5.59575 8.77711 5.66575 8.99878L6.41245 11.2971L7.15911 8.99295C7.22911 8.77711 7.39828 8.60211 7.61995 8.53211L9.92411 7.78545L7.61995 7.03878C7.40411 6.96878 7.22911 6.79378 7.15911 6.57795L6.41245 4.27964L5.66575 6.58378C5.59575 6.79961 5.42659 6.97461 5.20492 7.04461L2.90076 7.79128V7.78545Z"
              fill="#71717A"/>
    </symbol>
</svg>